<svg width="1200" height="630" viewBox="0 0 1200 630" fill="none" xmlns="http://www.w3.org/2000/svg" xmlns:xlink="http://www.w3.org/1999/xlink">
<g clip-path="url(#clip0_1740_70865)">
<rect width="1200" height="630" transform="matrix(-1 0 0 1 1200 0)" fill="url(#pattern0_1740_70865)"/>
<rect width="1200" height="630" fill="url(#paint0_radial_1740_70865)"/>
<path d="M414.502 213.15C414.488 213.565 414.396 213.994 414.477 214.392C414.621 215.106 414.543 215.811 414.53 216.52C414.495 218.373 414.447 220.224 414.405 222.078C414.373 223.472 414.17 224.843 413.764 226.174C413.242 227.886 412.499 229.497 411.391 230.925C410.925 231.525 410.351 231.997 409.715 232.404C408.636 233.098 407.452 233.253 406.208 233.06C405.742 232.987 405.315 232.789 404.934 232.518C403.935 231.808 403.025 231.005 402.407 229.93C401.424 228.225 400.572 226.458 400.109 224.541C399.684 222.78 399.287 221.006 399.326 219.177C399.104 218.079 399.217 216.972 399.304 215.879C399.42 214.433 399.605 212.987 400.069 211.596C400.436 210.49 401.003 209.527 401.923 208.778C402.514 208.294 403.185 207.973 403.895 207.715C405.549 207.112 407.254 206.746 409.016 206.657C409.16 206.65 409.309 206.649 409.442 206.606C409.526 206.577 409.63 206.484 409.649 206.403C409.688 206.233 409.719 206.04 409.679 205.875C409.498 205.1 409.621 204.315 409.553 203.538C409.485 202.758 409.439 201.981 409.472 201.198C409.49 200.772 409.479 200.344 409.464 199.917C409.451 199.529 409.415 199.141 409.395 198.752C409.383 198.539 409.375 198.326 409.377 198.113C409.387 197.116 409.485 196.111 409.393 195.123C409.283 193.92 409.415 192.71 409.199 191.515C409.149 191.238 409.215 190.944 409.185 190.663C409.056 189.463 409.087 188.252 408.908 187.056C408.877 186.847 408.914 186.628 408.908 186.415C408.864 185.138 408.695 183.864 408.761 182.582C408.586 181.952 408.651 181.31 408.68 180.672C408.69 180.463 408.732 180.25 408.8 180.052C408.922 179.694 409.163 179.434 409.552 179.361C410.078 179.263 410.604 179.123 411.132 179.105C411.528 179.092 411.874 178.803 412.286 178.952C412.625 179.074 412.831 179.405 413.214 179.472C413.51 179.523 413.706 179.762 413.833 180.026C413.986 180.346 414.138 180.671 414.252 181.007C414.912 182.966 415.375 184.976 415.758 187.002C416.049 188.536 416.319 190.075 416.561 191.619C416.797 193.127 416.993 194.641 417.194 196.154C417.395 197.666 417.582 199.18 417.771 200.694C417.92 201.889 418.062 203.088 418.206 204.284C418.35 205.481 418.492 206.678 418.64 207.874C418.765 208.894 418.887 209.914 419.032 210.931C419.292 212.759 419.572 214.584 419.835 216.41C419.927 217.043 420.01 217.676 420.074 218.312C420.236 219.934 420.394 221.557 420.537 223.182C420.609 223.994 420.621 224.813 420.703 225.624C420.884 227.387 420.982 229.161 421.311 230.908C421.405 231.409 421.525 231.881 421.946 232.222C422.19 232.421 422.233 232.692 422.226 232.993C422.214 233.494 422.173 233.984 421.967 234.455C421.669 235.132 421.451 235.846 421.043 236.474C420.909 236.681 420.764 236.891 420.581 237.052C420.243 237.351 419.865 237.358 419.517 237.075C418.741 236.445 417.941 235.832 417.607 234.824C417.541 234.625 417.408 234.447 417.302 234.262C416.835 233.446 416.575 232.56 416.437 231.642C416.332 230.941 416.318 230.225 416.227 229.523C416.1 228.537 416.095 227.546 415.984 226.557C415.895 225.749 415.899 224.929 415.827 224.117C415.733 223.056 415.732 221.987 415.643 220.926C415.503 219.265 415.355 217.606 415.075 215.959C414.987 215.435 414.935 214.904 414.847 214.378C414.777 213.964 414.68 213.554 414.594 213.141C414.563 213.143 414.533 213.146 414.502 213.146L414.502 213.15ZM410.242 221.275C410.248 220.426 410.277 219.581 410.212 218.725C410.122 217.526 410.15 216.316 410.117 215.11C410.082 213.797 409.975 212.487 409.969 211.175C409.968 210.891 409.983 210.604 409.956 210.321C409.866 209.431 409.837 209.412 408.93 209.554C408.473 209.627 408.006 209.668 407.561 209.786C406.28 210.124 405.025 210.531 403.952 211.353C403.483 211.71 403.169 212.134 403.007 212.715C402.707 213.787 402.767 214.9 402.545 215.977C402.524 216.081 402.506 216.201 402.54 216.296C402.755 216.923 402.603 217.568 402.656 218.203C402.825 220.261 403.212 222.275 403.862 224.237C404.187 225.221 404.587 226.169 405.137 227.05C405.459 227.566 405.835 228.041 406.344 228.396C406.668 228.621 406.983 228.668 407.342 228.461C407.783 228.208 408.165 227.888 408.49 227.505C409.294 226.556 409.753 225.45 409.969 224.239C410.143 223.259 410.278 222.273 410.242 221.274L410.242 221.275Z" fill="white"/>
<path d="M218.715 200.456L216.348 200.375C215.81 200.357 215.281 200.296 214.747 200.217C213.898 200.093 213.032 200.093 212.173 200.017C211.536 199.96 210.9 199.869 210.265 199.784C209.628 199.698 208.98 199.747 208.351 199.542C208.055 199.446 207.712 199.482 207.39 199.466C206.282 199.409 205.199 199.144 204.087 199.113C203.228 199.089 202.373 198.986 201.516 198.936C201.465 198.934 201.348 199.1 201.362 199.166C201.505 199.861 201.668 200.554 201.831 201.245C202.32 203.319 202.856 205.383 203.292 207.467C203.988 210.804 204.65 214.149 205.168 217.517C205.356 218.743 205.429 219.987 205.547 221.225C205.694 222.777 205.849 224.328 205.974 225.882C206.034 226.623 206.061 227.368 206.124 228.111C206.232 229.384 206.196 230.67 206.302 231.942C206.424 233.39 206.458 234.844 206.698 236.284C206.844 237.156 206.807 238.058 206.93 238.936C207.066 239.894 207.057 240.849 207.026 241.807C207.003 242.483 206.993 243.166 206.882 243.83C206.748 244.629 206.523 245.414 206.317 246.201C206.219 246.578 206.075 246.944 205.944 247.313C205.811 247.688 205.629 248.028 205.271 248.247C204.974 248.429 204.68 248.476 204.364 248.287C203.997 248.067 203.613 247.874 203.255 247.641C203.049 247.505 202.847 247.339 202.701 247.144C202.232 246.517 201.8 245.864 201.341 245.23C200.753 244.418 200.555 243.487 200.52 242.518C200.493 241.735 200.556 240.95 200.523 240.168C200.484 239.215 200.383 238.263 200.314 237.309C200.289 236.955 200.279 236.6 200.267 236.245C200.205 234.574 200.162 232.906 200.244 231.234C200.311 229.81 200.383 228.38 200.309 226.96C200.256 225.963 200.276 224.972 200.275 223.979C200.273 223.409 200.277 222.84 200.281 222.269C200.285 221.63 200.373 220.991 200.22 220.353C200.164 220.117 200.208 219.856 200.22 219.607C200.301 217.793 200.183 215.989 200 214.184C199.93 213.481 199.907 212.771 199.839 212.064C199.692 210.547 199.622 209.023 199.48 207.506C199.369 206.306 199.183 205.114 199.059 203.916C198.964 202.999 198.909 202.078 198.846 201.159C198.799 200.487 198.768 199.815 198.724 199.142C198.707 198.876 198.561 198.731 198.31 198.776C197.167 198.987 196.017 198.821 194.875 198.805C193.584 198.787 192.305 198.963 191.017 198.916C189.837 198.876 188.665 199.119 187.482 199.015C186.635 199.222 185.761 199.052 184.921 199.169C184.021 199.294 183.134 199.196 182.244 199.244C181.994 199.258 181.733 199.262 181.494 199.201C181.261 199.141 181.016 199.03 180.84 198.872C180.321 198.406 180.395 197.959 181.055 197.781C181.74 197.596 182.454 197.508 183.158 197.404C184.218 197.248 185.278 197.113 186.341 196.971C187.436 196.824 188.532 196.689 189.627 196.537C190.475 196.421 191.331 196.41 192.175 196.261C192.77 196.156 193.382 196.181 193.987 196.109C195.121 195.978 196.269 195.976 197.412 195.932C197.733 195.92 198.048 195.94 198.367 195.833C198.619 195.75 198.821 195.696 198.901 195.398C199.032 194.907 199.44 194.758 199.894 194.732C200.512 194.698 200.992 194.981 201.379 195.44C201.404 195.827 201.664 195.865 201.981 195.873C202.985 195.897 203.989 195.932 204.993 195.975C206.75 196.047 208.506 196.126 210.263 196.201C210.371 196.205 210.483 196.192 210.585 196.219C211.745 196.532 212.937 196.424 214.114 196.495C214.759 196.534 215.405 196.546 216.051 196.561C216.479 196.572 216.909 196.635 217.331 196.477C217.458 196.429 217.616 196.453 217.759 196.455C219.085 196.483 220.414 196.518 221.741 196.537C222.176 196.543 222.576 196.66 222.99 196.777C223.448 196.905 223.653 197.183 223.722 197.591C223.868 198.435 223.613 199.215 223.212 199.937C222.954 200.403 222.503 200.609 221.943 200.583C220.868 200.532 219.79 200.506 218.714 200.469L218.715 200.456Z" fill="white"/>
<path d="M336.81 202.882C338.404 202.929 339.927 203.247 341.3 204.108C341.542 204.259 341.803 204.379 342.051 204.519C343.463 205.316 344.187 206.528 344.408 208.125C344.696 210.197 344.251 212.157 343.609 214.084C343.136 215.502 342.461 216.843 341.631 218.097C340.953 219.119 340.096 219.969 339.086 220.67C338.174 221.304 337.244 221.911 336.169 222.234C335.693 222.377 335.197 222.532 334.709 222.534C334.223 222.536 333.736 222.355 333.25 222.252C333.18 222.238 333.107 222.19 333.046 222.202C332.993 222.213 332.947 222.282 332.912 222.334C332.898 222.356 332.91 222.407 332.925 222.437C333.549 223.735 334.335 224.908 335.502 225.802C335.855 226.072 336.245 226.227 336.656 226.338C337.229 226.495 337.78 226.446 338.3 226.1C339.742 225.147 341.042 224.067 342 222.594C342.736 221.464 342.484 221.549 344.007 221.234C344.707 221.088 345.391 220.888 346.118 220.896C346.414 220.899 346.654 220.969 346.898 221.17C347.135 221.365 347.459 221.464 347.753 221.583C348.021 221.693 348.129 221.895 348.159 222.158C348.246 222.955 348.074 223.735 347.786 224.448C347.459 225.261 347.158 226.107 346.656 226.835C346.132 227.595 345.566 228.339 344.934 229.012C343.952 230.053 342.828 230.937 341.578 231.658C340.484 232.29 339.347 232.778 338.058 232.824C337.192 233.168 336.353 232.842 335.532 232.66C334.729 232.482 333.999 232.07 333.327 231.585C331.38 230.179 329.829 228.458 328.817 226.255C328.207 224.929 327.524 223.639 326.99 222.278C326.334 220.61 325.918 218.884 325.776 217.111C325.7 216.165 325.811 215.205 325.971 214.248C326.212 212.804 326.563 211.397 327.067 210.03C327.672 208.389 328.434 206.828 329.503 205.419C330.322 204.34 331.386 203.694 332.691 203.397C333.699 203.169 334.713 202.968 335.738 202.85C336.089 202.811 336.453 202.866 336.812 202.878L336.812 202.882L336.81 202.882ZM332.773 218.088L332.771 218.135C333.093 218.146 333.417 218.146 333.737 218.169C334.107 218.196 334.446 218.119 334.764 217.932C335.693 217.388 336.586 216.786 337.34 216.023C339 214.345 339.793 212.303 339.781 209.952C339.778 209.559 339.71 209.451 339.338 209.323C338.248 208.948 337.128 208.758 335.972 208.77C334.759 208.784 333.722 209.157 333.005 210.183C332.762 210.533 332.533 210.898 332.348 211.279C331.562 212.903 331.176 214.624 331.122 216.422C331.117 216.564 331.109 216.711 331.137 216.848C331.213 217.225 331.309 217.597 331.397 217.97C331.713 218.003 332.027 218.04 332.343 218.07C332.486 218.083 332.629 218.08 332.773 218.084L332.773 218.088Z" fill="white"/>
<path d="M210.823 222.787C210.838 222.362 210.851 222.077 210.857 221.791C210.898 219.368 211.693 217.194 213.049 215.203C214.182 213.539 215.566 212.097 217.116 210.821C217.663 210.371 218.286 209.994 218.917 209.668C220.384 208.913 221.931 208.346 223.556 208.05C224.65 207.85 225.777 207.878 226.855 208.185C227.644 208.409 228.41 208.72 229.175 209.02C229.506 209.149 229.831 209.317 230.12 209.521C230.964 210.114 231.597 210.875 231.83 211.9C231.949 212.418 232.021 212.948 232.099 213.475C232.156 213.86 232.2 214.247 232.225 214.636C232.243 214.918 232.251 215.209 232.215 215.49C231.996 217.219 231.668 218.917 231.032 220.555C230.44 222.082 229.408 223.226 228.081 224.132C226.465 225.237 224.661 225.906 222.747 226.284C220.588 226.709 218.408 226.676 216.226 226.479C215.981 226.457 215.744 226.374 215.501 226.34C215.457 226.333 215.375 226.412 215.354 226.468C215.332 226.526 215.359 226.603 215.371 226.673C215.598 227.949 216.08 229.129 216.753 230.237C217.367 231.247 218.121 232.145 218.92 233.019C219.822 234.006 220.931 234.338 222.211 234.212C222.777 234.157 223.333 234.003 223.897 233.918C225.132 233.736 226.228 233.216 227.204 232.479C228.109 231.797 229.118 231.384 230.188 231.069C230.57 230.956 230.944 230.869 231.347 230.901C231.559 230.919 231.774 230.89 231.988 230.868C232.472 230.817 232.601 230.93 232.522 231.346C232.382 232.077 232.242 232.808 232.101 233.538C232.08 233.643 232.055 233.748 232.027 233.851C231.709 235.076 231.015 236.006 229.935 236.706C228.966 237.334 227.945 237.832 226.864 238.216C225.684 238.635 224.469 238.974 223.229 239.1C221.99 239.225 220.712 239.284 219.51 238.829C218.602 238.485 217.792 237.949 217.028 237.355C216.319 236.805 215.726 236.148 215.186 235.427C214.351 234.312 213.52 233.197 212.794 232.009C211.947 230.623 211.413 229.124 211.153 227.53C210.891 225.915 210.727 224.291 210.823 222.792L210.823 222.787ZM227.504 215.699C227.516 215.342 227.531 214.988 227.54 214.632C227.547 214.321 227.456 214.087 227.101 214.003C226.173 213.781 225.283 213.522 224.278 213.661C223.223 213.808 222.265 214.106 221.373 214.651C219.204 215.975 217.502 217.772 216.043 219.824C215.441 220.668 215.159 221.592 215.166 222.616C215.168 222.866 215.149 223.114 215.154 223.362C215.158 223.499 215.181 223.615 215.392 223.612C216.783 223.587 218.165 223.482 219.539 223.246C220.89 223.015 222.16 222.616 223.346 221.91C224.246 221.377 225.034 220.725 225.787 220.013C226.476 219.362 226.935 218.58 227.253 217.694C227.488 217.039 227.476 216.367 227.504 215.695L227.504 215.699Z" fill="white"/>
<path d="M464.56 207.02C464.668 207.023 464.777 207.015 464.882 207.031C465.333 207.103 465.737 207.103 465.929 206.569C465.97 206.455 466.119 206.32 466.238 206.298C467.008 206.156 467.748 205.853 468.551 205.875C468.878 205.886 469.201 205.871 469.42 206.18C469.459 206.234 469.533 206.292 469.594 206.296C470.258 206.341 470.365 206.838 470.458 207.34C470.909 209.747 471.343 212.158 471.806 214.564C472.359 217.425 473.039 220.253 473.859 223.052C474.447 225.064 474.977 227.093 475.531 229.114C475.859 230.317 475.82 231.477 475.294 232.643C475.062 233.16 474.792 233.656 474.566 234.172C474.428 234.486 474.191 234.679 473.877 234.805C473.697 234.877 473.532 234.899 473.374 234.776C473.093 234.557 472.809 234.339 472.54 234.107C472.406 233.992 472.259 233.862 472.191 233.707C471.757 232.739 471.174 231.852 470.923 230.785C470.365 228.4 469.699 226.039 469.078 223.668C469.059 223.6 469.062 223.524 469.034 223.459C469.012 223.404 468.959 223.364 468.919 223.316C468.847 223.388 468.73 223.448 468.711 223.532C468.578 224.12 468.483 224.717 468.341 225.302C467.87 227.249 467.163 229.104 466.096 230.809C465.816 231.256 465.475 231.684 465.088 232.043C464.239 232.833 463.212 232.815 462.166 232.532C461.893 232.459 461.631 232.33 461.377 232.199C459.393 231.178 457.742 229.808 456.74 227.772C456.425 227.134 456.086 226.505 455.828 225.846C454.993 223.723 454.789 221.504 454.941 219.249C455.104 216.801 455.83 214.514 457.038 212.374C457.924 210.802 459.078 209.451 460.478 208.314C461.293 207.651 462.235 207.216 463.277 207.04C463.696 206.969 464.132 207.002 464.561 206.988L464.56 207.018L464.56 207.02ZM465.585 212.094C465.609 211.382 465.625 210.848 465.645 210.313C465.68 209.391 465.698 209.414 464.708 209.331C464.272 209.296 463.861 209.382 463.453 209.552C462.743 209.846 462.145 210.317 461.623 210.839C459.904 212.56 458.605 214.542 458.151 216.97C457.989 217.839 457.756 218.714 457.821 219.605C457.891 220.558 457.97 221.519 458.169 222.452C458.464 223.85 458.954 225.187 459.871 226.329C460.51 227.125 461.296 227.721 462.249 228.094C462.618 228.24 462.847 228.163 463.052 227.793C463.258 227.421 463.437 227.032 463.598 226.638C464.379 224.74 464.575 222.717 464.772 220.711C464.932 219.088 465.08 217.459 465.213 215.832C465.249 215.405 465.201 214.961 465.311 214.558C465.546 213.685 465.456 212.789 465.585 212.09L465.585 212.094Z" fill="white"/>
<path d="M443.837 232.214C440.025 231.984 437.001 230.85 434.374 228.696C434.07 228.447 433.763 228.203 433.471 227.94C432.909 227.435 432.434 226.856 432.084 226.185C431.754 225.554 431.42 224.925 431.105 224.286C430.613 223.284 430.328 222.231 430.288 221.107C430.267 220.542 430.133 219.982 430.201 219.409C430.467 217.193 430.656 214.967 431.465 212.847C432.173 210.995 433.322 209.488 434.863 208.264C435.598 207.681 436.43 207.246 437.327 206.986C438.249 206.718 439.181 206.459 440.154 206.398C440.58 206.371 441.002 206.308 441.428 206.282C442.006 206.247 442.573 206.337 443.117 206.52C444.314 206.922 445.441 207.45 446.302 208.418C446.82 209.001 447.085 209.677 447.13 210.453C447.271 212.905 446.488 215.078 445.11 217.065C444.724 217.623 444.22 218.087 443.668 218.49C441.954 219.742 440.019 220.391 437.924 220.681C437.061 220.801 436.211 220.73 435.358 220.765C435.197 220.772 435.102 220.898 435.141 221.054C435.395 222.083 435.883 222.95 436.736 223.64C437.706 224.424 438.831 224.852 439.987 225.225C441.357 225.67 442.773 225.849 444.213 225.86C444.809 225.865 445.348 225.736 445.847 225.426C446.18 225.218 446.519 225.015 446.82 224.767C447.247 224.415 447.73 224.203 448.266 224.109C449.036 223.975 449.808 223.855 450.579 223.732C450.844 223.691 451.087 223.758 451.27 223.948C451.504 224.189 451.773 224.333 452.109 224.376C452.311 224.402 452.42 224.561 452.431 224.75C452.471 225.463 452.475 226.171 452.224 226.86C451.893 227.761 451.501 228.633 450.984 229.443C450.574 230.085 449.964 230.53 449.315 230.92C448.319 231.517 447.224 231.847 446.089 232.023C445.208 232.159 444.317 232.272 443.84 232.215L443.837 232.214ZM441.306 211.108C440.459 210.993 439.64 211.223 438.857 211.598C437.638 212.183 436.681 213.078 435.896 214.157C435.734 214.382 435.597 214.652 435.539 214.922C435.348 215.82 435.196 216.726 435.034 217.63C435.015 217.734 435.027 217.843 435.037 217.949C435.051 218.11 435.154 218.197 435.309 218.221C435.778 218.294 436.227 218.159 436.686 218.098C438.243 217.89 439.622 217.257 440.891 216.367C441.534 215.917 442.12 215.4 442.589 214.76C443.196 213.935 443.537 213.019 443.596 212.001C443.614 211.685 443.505 211.547 443.227 211.426C442.624 211.165 441.989 211.097 441.304 211.107L441.306 211.108Z" fill="white"/>
<path d="M374.043 202.398C372.824 202.417 371.608 202.312 370.389 202.462C369.825 202.531 369.243 202.454 368.669 202.457C368.206 202.461 367.747 202.462 367.281 202.545C366.761 202.636 366.224 202.596 365.693 202.413C364.851 202.123 363.984 201.908 363.132 201.653C362.883 201.579 362.81 201.335 362.964 201.149C363.1 200.984 363.244 200.824 363.397 200.674C363.656 200.416 363.849 200.144 363.808 199.743C363.79 199.566 363.907 199.407 364.107 199.35C364.313 199.291 364.515 199.196 364.725 199.177C366.111 199.053 367.452 198.65 368.857 198.594C369.602 198.564 370.355 198.534 371.1 198.471C372.459 198.355 373.82 198.457 375.173 198.382C376.21 198.323 377.256 198.399 378.276 198.274C379.378 198.141 380.483 198.228 381.585 198.067C382.674 197.907 383.793 197.945 384.898 197.884C385.396 197.856 385.892 197.803 386.389 197.753C386.69 197.721 386.955 197.748 387.159 198.013C387.217 198.089 387.334 198.124 387.429 198.172C387.934 198.427 388.059 198.587 387.956 199.047C387.757 199.952 387.404 200.804 386.918 201.594C386.791 201.8 386.592 201.972 386.322 202.02C386.113 202.058 385.907 202.137 385.697 202.146C384.446 202.198 383.194 202.197 381.946 202.29C380.982 202.361 380.019 202.392 379.053 202.415C378.891 202.418 378.815 202.554 378.829 202.711C378.9 203.596 378.973 204.48 379.005 205.369C379.035 206.216 379.2 207.058 379.253 207.906C379.421 210.601 379.862 213.26 380.249 215.928C380.422 217.121 380.531 218.324 380.645 219.526C380.764 220.796 380.834 222.073 380.961 223.342C381.138 225.105 381.202 226.882 381.597 228.618C381.715 229.137 381.828 229.666 382.024 230.159C382.233 230.683 382.199 230.864 382.949 230.82C383.59 230.783 384.228 230.824 384.873 230.716C385.5 230.611 386.161 230.708 386.806 230.7C387.161 230.695 387.515 230.635 387.871 230.638C388.872 230.65 389.876 230.646 390.874 230.716C391.489 230.759 391.974 231.188 392.509 231.46C392.611 231.512 392.701 231.695 392.702 231.82C392.703 232.209 392.727 232.619 392.615 232.982C392.377 233.754 392.039 234.499 391.644 235.207C391.425 235.601 391.065 235.798 390.568 235.761C389.817 235.704 389.063 235.699 388.309 235.677C387.736 235.661 387.171 235.638 386.596 235.745C386.145 235.826 385.666 235.769 385.2 235.748C384.088 235.696 382.989 235.861 381.88 235.872C380.702 235.882 379.516 235.874 378.346 235.999C376.893 236.154 375.43 236.182 373.981 236.409C372.927 236.574 371.855 236.641 370.79 236.74C370.542 236.763 370.281 236.688 370.038 236.73C369.202 236.878 368.732 236.282 368.175 235.864C368.119 235.822 368.072 235.76 368.043 235.697C367.736 235.054 367.434 234.409 367.126 233.767C366.82 233.132 367.16 232.477 367.897 232.298C368.279 232.205 368.666 232.127 369.056 232.088C369.801 232.013 370.55 231.976 371.296 231.912C371.864 231.862 372.432 231.802 372.997 231.729C374.128 231.582 375.256 231.413 376.388 231.275C377.061 231.192 377.739 231.158 378.415 231.093C378.627 231.073 378.743 230.938 378.725 230.737C378.659 229.959 378.622 229.174 378.496 228.407C378.425 227.977 378.436 227.558 378.423 227.132C378.375 225.464 378.361 223.792 378.29 222.126C378.241 220.96 378.283 219.786 378.108 218.619C378.004 217.923 378.017 217.205 377.94 216.498C377.757 214.807 377.562 213.111 377.48 211.412C377.411 209.958 377.229 208.506 377.324 207.046C377.335 206.868 377.368 206.68 377.325 206.513C377.132 205.771 377.271 205.022 377.267 204.278C377.263 203.816 377.265 203.352 377.246 202.889C377.235 202.612 377.127 202.512 376.845 202.499C375.912 202.46 374.981 202.435 374.048 202.403L374.043 202.4L374.043 202.398Z" fill="white"/>
<path d="M295.291 236.062C295.31 235.528 295.335 234.994 295.346 234.457C295.358 233.856 295.445 233.251 295.275 232.652C295.228 232.488 295.268 232.297 295.274 232.119C295.308 231.016 295.342 229.916 295.184 228.817C295.135 228.469 295.214 228.103 295.193 227.75C295.03 225.011 295.097 222.272 295.202 219.535C295.217 219.148 295.156 218.758 295.138 218.368C295.125 218.084 295.119 217.798 295.125 217.514C295.159 215.804 295.246 214.094 295.216 212.384C295.198 211.465 295.164 210.541 295.117 209.619C294.956 206.412 295.122 203.209 295.224 200.006C295.242 199.473 295.266 198.944 295.172 198.408C295.107 198.029 295.15 197.625 295.169 197.235C295.233 195.951 295.097 194.68 294.936 193.411C294.85 192.735 294.82 192.062 294.883 191.388C294.952 190.658 295.563 190.322 296.298 190.586C296.346 190.603 296.398 190.7 296.391 190.752C296.377 190.852 296.344 190.965 296.279 191.039C296.018 191.331 295.966 191.62 296.096 192.014C296.429 193.027 296.683 194.064 296.816 195.126C296.907 195.863 297.013 196.6 297.085 197.338C297.197 198.47 297.198 199.607 297.255 200.741C297.31 201.842 297.259 202.946 297.352 204.039C297.496 205.733 297.499 207.438 297.726 209.128C297.858 210.11 297.799 211.117 297.938 212.098C298.077 213.086 298.009 214.08 298.156 215.068C298.26 215.766 298.174 216.49 298.181 217.201C298.182 217.376 298.207 217.553 298.233 217.727C298.251 217.849 298.43 217.931 298.558 217.886C298.592 217.875 298.624 217.855 298.656 217.842C299.727 217.401 300.855 217.218 302.001 217.182C302.604 217.165 303.193 217.329 303.75 217.595C306.018 218.676 307.475 220.458 308.228 222.803C308.564 223.849 308.787 224.935 309.006 226.015C309.353 227.732 309.458 229.473 309.263 231.214C309.193 231.843 309.008 232.467 308.814 233.073C308.293 234.715 307.532 236.241 306.446 237.59C305.506 238.758 304.342 239.632 302.889 240.069C302.21 240.274 301.499 240.381 300.804 240.533C300.526 240.594 300.244 240.642 299.971 240.724C299.887 240.749 299.824 240.861 299.76 240.94C299.74 240.964 299.749 241.009 299.742 241.045C299.698 241.326 299.732 241.654 299.596 241.879C299.247 242.459 299.122 243.139 298.736 243.693C298.635 243.839 298.526 243.982 298.399 244.106C298.163 244.333 297.753 244.371 297.512 244.164C297.028 243.744 296.51 243.354 296.287 242.706C296.184 242.407 295.976 242.144 295.856 241.847C295.697 241.452 295.519 241.052 295.453 240.638C295.346 239.973 295.308 239.297 295.27 238.624C295.247 238.197 295.272 237.769 295.281 237.342C295.29 236.915 295.31 236.488 295.325 236.061L295.29 236.06L295.291 236.062ZM305.265 229.382C305.218 228.676 305.204 227.968 305.114 227.267C304.956 226.038 304.789 224.811 304.43 223.615C304.138 222.639 303.515 221.948 302.701 221.394C302.372 221.17 301.994 221.085 301.593 221.035C300.673 220.922 299.818 221.12 298.977 221.453C298.401 221.681 298.357 221.717 298.384 222.294C298.415 222.929 298.478 223.563 298.525 224.198C298.639 225.752 298.712 227.31 298.878 228.86C299.08 230.727 299.124 232.601 299.257 234.469C299.264 234.574 299.263 234.693 299.316 234.774C299.421 234.937 299.568 234.76 299.692 234.787C299.862 234.826 300.074 234.833 300.186 234.939C300.5 235.233 300.802 235.162 301.172 235.069C301.708 234.934 302.177 234.688 302.607 234.374C304.298 233.139 305.209 231.491 305.267 229.382L305.265 229.382Z" fill="white"/>
<path d="M485.727 229.111C486.219 229.201 486.707 229.3 487.201 229.371C487.367 229.395 487.566 229.387 487.715 229.317C488.437 228.98 489.092 228.539 489.562 227.888C489.767 227.606 489.933 227.276 490.031 226.942C490.218 226.317 490.126 226.103 489.535 225.851C488.551 225.431 487.55 225.044 486.549 224.664C485.309 224.194 484.08 223.701 482.998 222.927C482.332 222.449 481.687 221.937 481.067 221.4C480.414 220.836 479.888 220.161 479.468 219.402C478.967 218.497 478.469 217.591 478.173 216.594C477.909 215.703 477.761 214.779 477.82 213.862C477.954 211.769 478.547 209.802 479.794 208.085C480.494 207.119 481.403 206.367 482.54 205.929C483.993 205.369 485.487 205.053 487.054 205.222C487.334 205.252 487.617 205.324 487.88 205.425C489.06 205.874 489.979 206.633 490.598 207.734C491.286 208.961 491.714 210.273 491.893 211.662C491.966 212.223 491.989 212.792 492.058 213.355C492.093 213.633 492.169 213.907 492.245 214.18C492.291 214.349 492.383 214.507 492.432 214.678C492.491 214.886 492.34 215.156 492.165 215.195C491.958 215.241 491.812 215.133 491.709 214.985C491.298 214.4 490.966 213.775 490.722 213.1C490.419 212.264 490.113 211.427 489.742 210.621C489.538 210.175 489.229 209.766 488.915 209.383C488.097 208.385 487.073 208.011 485.772 208.339C484.632 208.627 483.635 209.126 482.791 209.938C482.093 210.608 481.71 211.443 481.556 212.373C481.416 213.214 481.356 214.062 481.558 214.917C482.028 216.918 483.322 218.222 485.129 219.052C486 219.452 486.939 219.709 487.852 220.015C488.257 220.15 488.681 220.232 489.09 220.356C490.187 220.691 491.232 221.139 492.244 221.684C494.341 222.813 495.207 224.566 495.06 226.887C494.966 228.37 494.47 229.731 493.812 231.039C493.461 231.737 493.092 232.423 492.582 233.036C491.803 233.972 490.816 234.591 489.704 235.016C489.076 235.256 488.418 235.438 487.721 235.43C487.368 235.425 487.009 235.568 486.662 235.539C486.024 235.487 485.39 235.365 484.758 235.255C484.621 235.231 484.477 235.167 484.367 235.082C483.579 234.474 482.73 233.926 482.342 232.935C482.161 232.472 481.913 232.036 481.7 231.584C481.544 231.251 481.479 230.896 481.561 230.541C481.649 230.158 481.781 229.77 482.236 229.66C483.379 229.386 484.518 229.054 485.724 229.111L485.727 229.111Z" fill="white"/>
<path d="M260.956 220.337C260.939 220.834 260.927 221.334 260.905 221.832C260.854 222.875 261.129 223.88 261.309 224.89C261.656 226.847 261.939 228.812 262.149 230.787C262.351 232.69 262.554 234.594 262.737 236.499C262.828 237.452 262.886 238.411 262.939 239.368C262.997 240.459 262.573 241.457 262.282 242.475C262.229 242.665 262.056 242.834 261.906 242.983C261.629 243.257 261.382 243.28 260.956 243.066C259.756 242.465 259.168 241.377 258.54 240.309C258.242 239.802 258.25 239.21 258.212 238.653C258.098 236.99 257.945 235.33 257.859 233.664C257.769 231.894 257.578 230.129 257.403 228.363C257.282 227.129 257.111 225.899 256.973 224.666C256.941 224.385 256.949 224.098 256.954 223.812C256.974 222.71 256.767 221.617 256.873 220.513C256.93 219.912 256.967 219.315 257.052 218.714C257.171 217.877 257.102 217.011 257.101 216.157C257.102 215.874 257.051 215.59 257.057 215.306C257.122 212.635 257.192 209.962 257.265 207.29C257.274 206.97 257.31 206.651 257.338 206.332C257.368 205.999 257.534 205.726 257.75 205.483C257.904 205.31 258.106 205.253 258.334 205.274C258.489 205.288 258.631 205.366 258.639 205.518C258.744 207.502 259.232 209.441 259.322 211.425C259.326 211.505 259.394 211.594 259.458 211.652C259.477 211.67 259.597 211.615 259.639 211.568C259.896 211.272 260.144 210.969 260.394 210.668C261.005 209.941 261.777 209.427 262.649 209.073C263.51 208.723 264.38 208.393 265.299 208.227C265.858 208.124 266.426 208.075 266.991 208.002C268.545 208.32 270.038 208.744 271.243 209.87C271.789 210.379 272.007 210.978 272.003 211.674C271.998 212.203 272.055 212.745 271.851 213.261C271.813 213.358 271.814 213.471 271.797 213.576C271.757 213.816 271.717 214.059 271.678 214.3C271.327 214.371 270.963 214.326 270.657 214.198C270.099 213.962 269.584 213.635 269.16 213.179C268.787 212.777 268.306 212.579 267.788 212.389C266.915 212.068 266.094 212.256 265.261 212.453C264.392 212.661 263.712 213.179 263.151 213.849C262.553 214.562 262.036 215.332 261.627 216.168C261.234 216.975 260.991 217.825 260.988 218.735C260.987 219.27 260.955 219.804 260.936 220.338L260.956 220.338L260.956 220.337Z" fill="white"/>
<path d="M317.029 226.19C317.094 224.267 317.052 222.333 317.258 220.426C317.434 218.795 317.456 217.162 317.578 215.532C317.69 214.042 317.671 212.543 317.71 211.047C317.717 210.727 317.726 210.406 317.73 210.086C317.737 209.484 317.78 208.887 317.671 208.279C317.585 207.797 317.69 207.283 317.652 206.788C317.558 205.48 317.583 204.166 317.403 202.862C317.363 202.583 317.427 202.291 317.409 202.007C317.228 199.195 317.332 196.385 317.428 193.576C317.446 193.044 317.408 192.513 317.379 191.98C317.328 191.023 317.387 190.058 317.439 189.098C317.468 188.562 317.824 188.275 318.368 188.278C318.58 188.28 318.798 188.301 319.005 188.35C319.306 188.42 319.467 188.814 319.24 189.022C318.957 189.284 318.963 189.525 319.012 189.869C319.214 191.274 319.354 192.686 319.435 194.105C319.52 195.625 319.564 197.151 319.732 198.663C319.977 200.846 320.325 203.016 320.611 205.195C320.781 206.495 320.899 207.804 321.076 209.104C321.223 210.196 321.137 211.301 321.321 212.39C321.381 212.737 321.328 213.1 321.332 213.457C321.34 214.947 321.427 216.437 321.455 217.928C321.478 219.097 321.46 220.273 321.558 221.436C321.631 222.288 321.57 223.139 321.662 223.985C321.779 225.078 321.698 226.182 321.872 227.272C321.905 227.48 321.878 227.698 321.892 227.911C322.019 229.93 322.194 231.943 322.595 233.93C322.671 234.306 322.724 234.708 322.999 235.018C323.178 235.222 323.201 235.473 323.191 235.722C323.158 236.576 323.081 237.421 322.518 238.131C322.475 238.185 322.43 238.254 322.428 238.32C322.398 238.995 321.941 239.489 321.679 240.065C321.579 240.284 321.423 240.511 321.232 240.655C320.763 241.003 320.42 241.07 319.902 240.655C319.073 239.988 318.375 239.267 318.031 238.25C317.248 237.084 316.976 235.779 316.953 234.402C316.929 233.053 316.808 231.71 316.875 230.357C316.944 228.971 316.92 227.579 316.938 226.19L317.028 226.193L317.029 226.19Z" fill="white"/>
<path d="M241.28 209.404C241.161 209.838 241.258 210.205 241.392 210.585C241.579 211.119 241.708 211.676 241.873 212.219C241.902 212.316 241.96 212.428 242.04 212.478C242.25 212.606 242.265 212.37 242.325 212.278C242.905 211.42 243.692 210.867 244.668 210.497C245.913 210.024 247.19 209.73 248.497 209.517C249.388 209.372 250.196 209.587 250.991 209.939C251.197 210.031 251.33 210.183 251.402 210.401C251.563 210.888 251.602 211.389 251.495 211.877C251.359 212.496 251.152 213.1 250.969 213.708C250.94 213.809 250.886 213.904 250.837 213.999C250.626 214.412 250.308 214.616 249.82 214.657C248.969 214.726 248.114 214.73 247.268 214.9C246.778 214.998 246.393 215.212 246.086 215.573C245.856 215.844 245.639 216.134 245.475 216.447C245.365 216.656 245.314 216.921 245.32 217.16C245.344 218.189 245.22 219.218 245.398 220.247C245.469 220.661 245.388 221.099 245.405 221.526C245.445 222.59 245.473 223.655 245.556 224.715C245.664 226.093 245.826 227.466 245.957 228.841C246.025 229.547 246.067 230.257 246.139 230.962C246.283 232.372 246.442 233.781 246.589 235.191C246.659 235.862 246.735 236.532 246.772 237.205C246.789 237.515 246.755 237.839 246.684 238.142C246.59 238.543 246.45 238.928 246.392 239.347C246.341 239.726 246.154 240.09 245.998 240.448C245.913 240.639 245.786 240.823 245.642 240.975C245.416 241.215 245.033 241.247 244.751 241.089C244.087 240.717 243.433 240.082 242.788 239.182C242.349 238.569 242.045 237.921 241.993 237.129C241.893 235.609 241.682 234.096 241.53 232.579C241.363 230.92 241.244 229.257 241.04 227.602C240.829 225.878 240.532 224.165 240.287 222.445C240.068 220.899 239.861 219.35 239.665 217.802C239.45 216.116 239.255 214.427 239.053 212.738C238.989 212.21 238.913 211.681 238.879 211.152C238.854 210.763 238.874 210.369 238.896 209.979C238.923 209.513 239.161 209.17 239.587 208.975C239.913 208.827 240.244 208.685 240.585 208.581C241.011 208.449 241.289 208.676 241.286 209.117C241.286 209.225 241.279 209.33 241.277 209.403L241.28 209.403L241.28 209.404Z" fill="white"/>
<path d="M281.607 232.825C281.632 232.115 281.731 231.395 281.666 230.693C281.494 228.875 281.688 227.065 281.715 225.252C281.743 223.471 281.796 221.69 281.828 219.908C281.833 219.59 281.769 219.271 281.771 218.953C281.779 218.171 281.743 217.381 281.847 216.609C281.915 216.114 281.963 215.623 281.995 215.127C282.033 214.523 282.066 213.918 282.127 213.316C282.148 213.111 282.242 212.91 282.325 212.717C282.365 212.625 282.444 212.505 282.526 212.484C282.973 212.371 283.424 212.217 283.875 212.213C284.166 212.211 284.471 212.42 284.745 212.578C284.844 212.635 284.916 212.813 284.926 212.941C284.968 213.541 285.045 214.137 285.073 214.741C285.143 216.228 285.162 217.719 285.314 219.203C285.43 220.332 285.4 221.473 285.497 222.603C285.593 223.697 285.536 224.801 285.732 225.887C285.757 226.025 285.73 226.173 285.737 226.315C285.841 228.693 286.076 231.056 286.501 233.4C286.602 233.957 286.651 234.523 286.731 235.085C286.812 235.64 286.513 236.119 286.438 236.643C285.972 237.238 285.908 238.018 285.509 238.645C285.375 238.855 285.257 239.083 285.091 239.262C284.738 239.641 284.262 239.665 283.844 239.344C283.243 238.886 282.684 238.401 282.415 237.653C282.272 237.254 282.041 236.886 281.839 236.507C281.562 235.985 281.503 235.44 281.559 234.853C281.624 234.181 281.616 233.502 281.639 232.826L281.607 232.825Z" fill="white"/>
<path d="M281.719 198.585C281.561 199.271 281.246 200.134 280.65 200.856C280.354 201.216 279.905 201.41 279.429 201.456C279.265 201.473 279.056 201.433 278.928 201.339C278.558 201.065 278.189 200.779 278.017 200.32C277.866 199.924 277.668 199.545 277.532 199.144C277.386 198.718 277.571 198.403 278.011 198.243C278.145 198.194 278.28 198.15 278.419 198.118C278.675 198.061 278.754 197.9 278.747 197.655C278.738 197.361 278.919 197.199 279.181 197.127C279.489 197.04 279.8 196.959 280.116 196.904C280.247 196.881 280.403 196.905 280.529 196.954C280.759 197.045 280.985 197.155 281.197 197.285C281.654 197.566 281.757 197.785 281.717 198.582L281.717 198.585L281.719 198.585Z" fill="white"/>
<path d="M175.339 327.868L190.538 279.659H202.356L217.555 327.868H209.252L195.459 284.614H197.267L183.642 327.868H175.339ZM183.809 317.423V309.89H209.118V317.423H183.809ZM244.712 327.868L233.664 291.644L241.565 291.711L248.629 314.912L255.793 291.711H262.589L269.72 314.912L276.817 291.711H284.718L273.67 327.868H267.376L259.174 302.994L251.006 327.868H244.712ZM305.89 328.872C302.229 328.872 299.016 328.08 296.248 326.495C293.48 324.91 291.316 322.712 289.753 319.9C288.213 317.088 287.443 313.852 287.443 310.191C287.443 306.241 288.202 302.815 289.72 299.914C291.237 296.99 293.347 294.724 296.047 293.118C298.748 291.511 301.872 290.707 305.421 290.707C309.171 290.707 312.351 291.589 314.962 293.352C317.596 295.093 319.549 297.559 320.821 300.751C322.093 303.942 322.573 307.703 322.26 312.033H314.259V309.087C314.237 305.158 313.545 302.29 312.184 300.483C310.822 298.675 308.679 297.771 305.756 297.771C302.453 297.771 299.998 298.798 298.391 300.851C296.784 302.882 295.98 305.861 295.98 309.79C295.98 313.45 296.784 316.284 298.391 318.293C299.998 320.302 302.341 321.306 305.421 321.306C307.407 321.306 309.115 320.871 310.543 320C311.994 319.108 313.11 317.824 313.891 316.15L321.859 318.561C320.475 321.819 318.332 324.352 315.431 326.16C312.552 327.968 309.371 328.872 305.89 328.872ZM293.436 312.033V305.94H318.31V312.033H293.436ZM346.168 328.872C342.508 328.872 339.294 328.08 336.526 326.495C333.759 324.91 331.594 322.712 330.031 319.9C328.491 317.088 327.721 313.852 327.721 310.191C327.721 306.241 328.48 302.815 329.998 299.914C331.516 296.99 333.625 294.724 336.325 293.118C339.026 291.511 342.151 290.707 345.699 290.707C349.449 290.707 352.629 291.589 355.24 293.352C357.874 295.093 359.827 297.559 361.099 300.751C362.371 303.942 362.851 307.703 362.539 312.033H354.537V309.087C354.515 305.158 353.823 302.29 352.462 300.483C351.1 298.675 348.958 297.771 346.034 297.771C342.731 297.771 340.276 298.798 338.669 300.851C337.062 302.882 336.258 305.861 336.258 309.79C336.258 313.45 337.062 316.284 338.669 318.293C340.276 320.302 342.619 321.306 345.699 321.306C347.686 321.306 349.393 320.871 350.821 320C352.272 319.108 353.388 317.824 354.169 316.15L362.137 318.561C360.753 321.819 358.611 324.352 355.709 326.16C352.83 327.968 349.65 328.872 346.168 328.872ZM333.714 312.033V305.94H358.588V312.033H333.714ZM369.941 327.868L370.008 279.659H378.177V309.12L391.401 291.711H401.478L387.45 309.79L402.683 327.868H392.003L378.177 310.459V327.868H369.941ZM421.82 328.872C418.16 328.872 414.946 328.08 412.179 326.495C409.411 324.91 407.246 322.712 405.684 319.9C404.144 317.088 403.374 313.852 403.374 310.191C403.374 306.241 404.133 302.815 405.65 299.914C407.168 296.99 409.277 294.724 411.978 293.118C414.678 291.511 417.803 290.707 421.352 290.707C425.101 290.707 428.282 291.589 430.893 293.352C433.526 295.093 435.479 297.559 436.751 300.751C438.024 303.942 438.503 307.703 438.191 312.033H430.19V309.087C430.167 305.158 429.476 302.29 428.114 300.483C426.753 298.675 424.61 297.771 421.686 297.771C418.383 297.771 415.928 298.798 414.321 300.851C412.714 302.882 411.911 305.861 411.911 309.79C411.911 313.45 412.714 316.284 414.321 318.293C415.928 320.302 418.272 321.306 421.352 321.306C423.338 321.306 425.045 320.871 426.474 320C427.924 319.108 429.04 317.824 429.821 316.15L437.789 318.561C436.405 321.819 434.263 324.352 431.361 326.16C428.482 327.968 425.302 328.872 421.82 328.872ZM409.366 312.033V305.94H434.241V312.033H409.366ZM469.688 327.868V310.459C469.688 309.321 469.61 308.06 469.454 306.676C469.297 305.292 468.929 303.964 468.349 302.692C467.791 301.398 466.943 300.338 465.805 299.512C464.689 298.686 463.171 298.273 461.252 298.273C460.225 298.273 459.209 298.441 458.205 298.775C457.201 299.11 456.286 299.69 455.46 300.516C454.656 301.32 454.009 302.436 453.518 303.864C453.027 305.27 452.782 307.078 452.782 309.287L447.994 307.245C447.994 304.165 448.586 301.375 449.769 298.876C450.974 296.376 452.737 294.39 455.058 292.917C457.379 291.421 460.236 290.674 463.629 290.674C466.307 290.674 468.516 291.12 470.257 292.013C471.998 292.905 473.382 294.044 474.408 295.428C475.435 296.811 476.194 298.284 476.685 299.847C477.176 301.409 477.488 302.893 477.622 304.299C477.779 305.683 477.857 306.81 477.857 307.68V327.868H469.688ZM444.613 327.868V291.711H451.811V302.927H452.782V327.868H444.613ZM500.5 328.872C497.175 328.872 494.273 328.035 491.796 326.361C489.319 324.687 487.399 322.411 486.038 319.532C484.676 316.653 483.996 313.405 483.996 309.79C483.996 306.129 484.676 302.871 486.038 300.014C487.422 297.135 489.374 294.87 491.896 293.218C494.418 291.544 497.387 290.707 500.802 290.707C504.239 290.707 507.118 291.544 509.439 293.218C511.782 294.87 513.557 297.135 514.762 300.014C515.967 302.893 516.57 306.152 516.57 309.79C516.57 313.383 515.967 316.63 514.762 319.532C513.557 322.411 511.76 324.687 509.372 326.361C506.984 328.035 504.027 328.872 500.5 328.872ZM501.739 321.641C503.904 321.641 505.645 321.15 506.962 320.168C508.301 319.163 509.272 317.768 509.874 315.983C510.499 314.197 510.812 312.133 510.812 309.79C510.812 307.424 510.499 305.359 509.874 303.596C509.272 301.811 508.323 300.427 507.029 299.445C505.734 298.441 504.06 297.938 502.007 297.938C499.842 297.938 498.056 298.474 496.65 299.545C495.244 300.594 494.206 302.023 493.537 303.83C492.867 305.616 492.533 307.602 492.533 309.79C492.533 311.999 492.856 314.008 493.503 315.816C494.173 317.601 495.188 319.018 496.55 320.067C497.911 321.116 499.641 321.641 501.739 321.641ZM510.812 327.868V302.491H509.807V279.659H517.942V327.868H510.812ZM550.843 328.872C548.232 328.872 546.023 328.381 544.215 327.399C542.407 326.395 541.034 325.067 540.097 323.415C539.182 321.764 538.724 319.945 538.724 317.958C538.724 316.217 539.014 314.655 539.595 313.271C540.175 311.865 541.068 310.66 542.273 309.656C543.478 308.629 545.041 307.792 546.96 307.145C548.411 306.676 550.107 306.252 552.049 305.873C554.013 305.493 556.133 305.147 558.409 304.835C560.708 304.5 563.107 304.143 565.607 303.764L562.728 305.404C562.75 302.904 562.192 301.063 561.054 299.88C559.916 298.697 557.997 298.106 555.296 298.106C553.667 298.106 552.093 298.485 550.576 299.244C549.058 300.003 547.998 301.308 547.395 303.161L540.03 300.851C540.923 297.793 542.619 295.338 545.119 293.486C547.641 291.633 551.033 290.707 555.296 290.707C558.51 290.707 561.333 291.232 563.766 292.281C566.221 293.33 568.04 295.048 569.223 297.436C569.87 298.708 570.261 300.014 570.395 301.353C570.528 302.67 570.595 304.109 570.595 305.672V327.868H563.532V320.034L564.703 321.306C563.074 323.917 561.166 325.837 558.979 327.064C556.814 328.269 554.102 328.872 550.843 328.872ZM552.45 322.444C554.28 322.444 555.843 322.121 557.137 321.473C558.432 320.826 559.458 320.034 560.217 319.096C560.998 318.159 561.523 317.277 561.791 316.452C562.215 315.425 562.449 314.253 562.494 312.936C562.561 311.597 562.594 310.515 562.594 309.689L565.072 310.426C562.639 310.805 560.552 311.14 558.811 311.43C557.07 311.72 555.575 311.999 554.325 312.267C553.075 312.512 551.97 312.791 551.011 313.104C550.073 313.439 549.281 313.829 548.634 314.276C547.987 314.722 547.484 315.235 547.127 315.816C546.793 316.396 546.625 317.077 546.625 317.858C546.625 318.751 546.848 319.543 547.295 320.235C547.741 320.904 548.388 321.44 549.236 321.842C550.107 322.243 551.178 322.444 552.45 322.444ZM593.807 328.872C590.482 328.872 587.58 328.035 585.103 326.361C582.625 324.687 580.706 322.411 579.345 319.532C577.983 316.653 577.302 313.405 577.302 309.79C577.302 306.129 577.983 302.871 579.345 300.014C580.728 297.135 582.681 294.87 585.203 293.218C587.725 291.544 590.694 290.707 594.108 290.707C597.545 290.707 600.425 291.544 602.746 293.218C605.089 294.87 606.864 297.135 608.069 300.014C609.274 302.893 609.877 306.152 609.877 309.79C609.877 313.383 609.274 316.63 608.069 319.532C606.864 322.411 605.067 324.687 602.679 326.361C600.291 328.035 597.333 328.872 593.807 328.872ZM595.046 321.641C597.211 321.641 598.952 321.15 600.268 320.168C601.607 319.163 602.578 317.768 603.181 315.983C603.806 314.197 604.118 312.133 604.118 309.79C604.118 307.424 603.806 305.359 603.181 303.596C602.578 301.811 601.63 300.427 600.335 299.445C599.041 298.441 597.367 297.938 595.314 297.938C593.149 297.938 591.363 298.474 589.957 299.545C588.551 300.594 587.513 302.023 586.844 303.83C586.174 305.616 585.839 307.602 585.839 309.79C585.839 311.999 586.163 314.008 586.81 315.816C587.48 317.601 588.495 319.018 589.857 320.067C591.218 321.116 592.948 321.641 595.046 321.641ZM604.118 327.868V302.491H603.114V279.659H611.249V327.868H604.118ZM630.411 327.868L617.288 291.711H625.356L634.462 317.925L643.535 291.711H651.636L638.513 327.868H630.411ZM672.774 328.872C669.114 328.872 665.9 328.08 663.133 326.495C660.365 324.91 658.2 322.712 656.638 319.9C655.098 317.088 654.328 313.852 654.328 310.191C654.328 306.241 655.087 302.815 656.605 299.914C658.122 296.99 660.231 294.724 662.932 293.118C665.632 291.511 668.757 290.707 672.306 290.707C676.055 290.707 679.236 291.589 681.847 293.352C684.481 295.093 686.433 297.559 687.706 300.751C688.978 303.942 689.458 307.703 689.145 312.033H681.144V309.087C681.122 305.158 680.43 302.29 679.068 300.483C677.707 298.675 675.564 297.771 672.64 297.771C669.337 297.771 666.882 298.798 665.275 300.851C663.668 302.882 662.865 305.861 662.865 309.79C662.865 313.45 663.668 316.284 665.275 318.293C666.882 320.302 669.226 321.306 672.306 321.306C674.292 321.306 675.999 320.871 677.428 320C678.879 319.108 679.994 317.824 680.776 316.15L688.743 318.561C687.36 321.819 685.217 324.352 682.316 326.16C679.437 327.968 676.256 328.872 672.774 328.872ZM660.321 312.033V305.94H685.195V312.033H660.321ZM720.642 327.868V310.459C720.642 309.321 720.564 308.06 720.408 306.676C720.252 305.292 719.883 303.964 719.303 302.692C718.745 301.398 717.897 300.338 716.759 299.512C715.643 298.686 714.125 298.273 712.206 298.273C711.179 298.273 710.164 298.441 709.159 298.775C708.155 299.11 707.24 299.69 706.414 300.516C705.611 301.32 704.963 302.436 704.472 303.864C703.981 305.27 703.736 307.078 703.736 309.287L698.948 307.245C698.948 304.165 699.54 301.375 700.723 298.876C701.928 296.376 703.691 294.39 706.012 292.917C708.333 291.421 711.19 290.674 714.583 290.674C717.261 290.674 719.47 291.12 721.211 292.013C722.952 292.905 724.336 294.044 725.363 295.428C726.389 296.811 727.148 298.284 727.639 299.847C728.13 301.409 728.442 302.893 728.576 304.299C728.733 305.683 728.811 306.81 728.811 307.68V327.868H720.642ZM695.567 327.868V291.711H702.765V302.927H703.736V327.868H695.567ZM758.739 327.868C756.35 328.314 754.007 328.504 751.708 328.437C749.432 328.392 747.389 327.979 745.582 327.198C743.774 326.395 742.401 325.134 741.464 323.415C740.638 321.853 740.203 320.257 740.158 318.628C740.114 316.998 740.091 315.157 740.091 313.104V281.668H748.126V312.635C748.126 314.086 748.137 315.358 748.159 316.452C748.204 317.545 748.438 318.438 748.863 319.13C749.666 320.469 750.949 321.217 752.712 321.373C754.476 321.529 756.484 321.44 758.739 321.105V327.868ZM733.53 298.039V291.711H758.739V298.039H733.53ZM780.072 328.905C777.394 328.905 775.184 328.459 773.443 327.566C771.702 326.674 770.319 325.535 769.292 324.152C768.265 322.768 767.506 321.295 767.015 319.733C766.524 318.17 766.201 316.697 766.045 315.313C765.911 313.907 765.844 312.769 765.844 311.899V291.711H774.012V309.12C774.012 310.236 774.09 311.497 774.247 312.903C774.403 314.287 774.76 315.626 775.318 316.92C775.898 318.193 776.746 319.242 777.862 320.067C779.001 320.893 780.529 321.306 782.449 321.306C783.475 321.306 784.491 321.139 785.495 320.804C786.5 320.469 787.404 319.9 788.207 319.096C789.033 318.271 789.691 317.144 790.182 315.715C790.673 314.287 790.919 312.479 790.919 310.292L795.706 312.334C795.706 315.414 795.103 318.204 793.898 320.703C792.715 323.203 790.963 325.201 788.642 326.696C786.321 328.169 783.464 328.905 780.072 328.905ZM791.89 327.868V316.653H790.919V291.711H799.02V327.868H791.89ZM808.426 327.868V291.711H815.557V300.516L814.686 299.378C815.133 298.173 815.724 297.079 816.461 296.097C817.22 295.093 818.124 294.267 819.173 293.62C820.065 293.017 821.047 292.548 822.119 292.214C823.212 291.857 824.328 291.644 825.466 291.578C826.605 291.488 827.709 291.533 828.781 291.711V299.244C827.709 298.932 826.471 298.831 825.065 298.943C823.681 299.054 822.431 299.445 821.315 300.114C820.199 300.717 819.284 301.487 818.57 302.424C817.878 303.362 817.365 304.433 817.03 305.638C816.695 306.821 816.528 308.105 816.528 309.488V327.868H808.426ZM850.953 328.872C847.293 328.872 844.079 328.08 841.311 326.495C838.544 324.91 836.379 322.712 834.817 319.9C833.277 317.088 832.507 313.852 832.507 310.191C832.507 306.241 833.266 302.815 834.783 299.914C836.301 296.99 838.41 294.724 841.111 293.118C843.811 291.511 846.936 290.707 850.484 290.707C854.234 290.707 857.414 291.589 860.026 293.352C862.659 295.093 864.612 297.559 865.884 300.751C867.156 303.942 867.636 307.703 867.324 312.033H859.323V309.087C859.3 305.158 858.608 302.29 857.247 300.483C855.886 298.675 853.743 297.771 850.819 297.771C847.516 297.771 845.061 298.798 843.454 300.851C841.847 302.882 841.044 305.861 841.044 309.79C841.044 313.45 841.847 316.284 843.454 318.293C845.061 320.302 847.404 321.306 850.484 321.306C852.471 321.306 854.178 320.871 855.607 320C857.057 319.108 858.173 317.824 858.954 316.15L866.922 318.561C865.538 321.819 863.396 324.352 860.494 326.16C857.615 327.968 854.435 328.872 850.953 328.872ZM838.499 312.033V305.94H863.373V312.033H838.499ZM179.356 353.221V345.822H187.425V353.221H179.356ZM179.356 394.868V358.711H187.425V394.868H179.356ZM222.461 394.868V377.459C222.461 376.321 222.383 375.06 222.227 373.676C222.07 372.292 221.702 370.964 221.122 369.692C220.564 368.398 219.716 367.338 218.578 366.512C217.462 365.686 215.944 365.273 214.025 365.273C212.998 365.273 211.982 365.441 210.978 365.775C209.974 366.11 209.059 366.69 208.233 367.516C207.429 368.32 206.782 369.436 206.291 370.864C205.8 372.27 205.555 374.078 205.555 376.287L200.767 374.245C200.767 371.165 201.359 368.375 202.542 365.876C203.747 363.376 205.51 361.39 207.831 359.917C210.152 358.421 213.009 357.674 216.401 357.674C219.08 357.674 221.289 358.12 223.03 359.013C224.771 359.905 226.155 361.044 227.181 362.428C228.208 363.811 228.967 365.284 229.458 366.847C229.949 368.409 230.261 369.893 230.395 371.299C230.551 372.683 230.63 373.81 230.63 374.68V394.868H222.461ZM197.386 394.868V358.711H204.584V369.927H205.555V394.868H197.386ZM268.471 395.872C264.744 395.872 261.564 395.046 258.93 393.395C256.296 391.721 254.277 389.444 252.87 386.565C251.487 383.686 250.784 380.428 250.761 376.79C250.784 373.085 251.509 369.804 252.937 366.947C254.388 364.068 256.441 361.814 259.097 360.184C261.753 358.533 264.911 357.707 268.572 357.707C272.678 357.707 276.149 358.745 278.983 360.821C281.84 362.874 283.704 365.686 284.574 369.257L276.539 371.433C275.914 369.491 274.877 367.985 273.426 366.914C271.975 365.82 270.324 365.273 268.471 365.273C266.373 365.273 264.644 365.775 263.282 366.78C261.921 367.762 260.916 369.123 260.269 370.864C259.622 372.605 259.298 374.58 259.298 376.79C259.298 380.227 260.068 383.005 261.608 385.126C263.148 387.246 265.436 388.306 268.471 388.306C270.614 388.306 272.299 387.815 273.526 386.833C274.776 385.851 275.714 384.434 276.339 382.581L284.574 384.423C283.458 388.105 281.505 390.94 278.715 392.926C275.926 394.89 272.511 395.872 268.471 395.872ZM291.283 394.868V358.711H298.414V367.516L297.543 366.378C297.99 365.173 298.581 364.079 299.318 363.097C300.076 362.093 300.98 361.267 302.029 360.62C302.922 360.017 303.904 359.548 304.975 359.214C306.069 358.857 307.185 358.644 308.323 358.578C309.461 358.488 310.566 358.533 311.637 358.711V366.244C310.566 365.932 309.327 365.831 307.921 365.943C306.538 366.054 305.288 366.445 304.172 367.114C303.056 367.717 302.141 368.487 301.427 369.424C300.735 370.362 300.221 371.433 299.887 372.638C299.552 373.821 299.384 375.105 299.384 376.488V394.868H291.283ZM333.81 395.872C330.15 395.872 326.936 395.08 324.168 393.495C321.401 391.91 319.236 389.712 317.673 386.9C316.133 384.088 315.363 380.852 315.363 377.191C315.363 373.241 316.122 369.815 317.64 366.914C319.158 363.99 321.267 361.724 323.967 360.118C326.668 358.511 329.792 357.707 333.341 357.707C337.091 357.707 340.271 358.589 342.882 360.352C345.516 362.093 347.469 364.559 348.741 367.751C350.013 370.942 350.493 374.703 350.181 379.033H342.179V376.087C342.157 372.158 341.465 369.29 340.104 367.483C338.742 365.675 336.6 364.771 333.676 364.771C330.373 364.771 327.918 365.798 326.311 367.851C324.704 369.882 323.9 372.861 323.9 376.79C323.9 380.45 324.704 383.284 326.311 385.293C327.918 387.302 330.261 388.306 333.341 388.306C335.327 388.306 337.035 387.871 338.463 387C339.914 386.108 341.03 384.824 341.811 383.15L349.779 385.561C348.395 388.819 346.252 391.352 343.351 393.16C340.472 394.968 337.291 395.872 333.81 395.872ZM321.356 379.033V372.94H346.23V379.033H321.356ZM367.107 395.872C364.495 395.872 362.286 395.381 360.478 394.399C358.67 393.395 357.298 392.067 356.36 390.415C355.445 388.764 354.988 386.945 354.988 384.958C354.988 383.217 355.278 381.655 355.858 380.271C356.438 378.865 357.331 377.66 358.536 376.656C359.742 375.629 361.304 374.792 363.223 374.145C364.674 373.676 366.37 373.252 368.312 372.873C370.276 372.493 372.396 372.147 374.673 371.835C376.972 371.5 379.371 371.143 381.871 370.764L378.991 372.404C379.014 369.904 378.456 368.063 377.318 366.88C376.179 365.697 374.26 365.106 371.559 365.106C369.93 365.106 368.357 365.485 366.839 366.244C365.321 367.003 364.261 368.308 363.659 370.161L356.293 367.851C357.186 364.793 358.882 362.338 361.382 360.486C363.904 358.633 367.296 357.707 371.559 357.707C374.773 357.707 377.597 358.232 380.029 359.281C382.484 360.33 384.303 362.048 385.486 364.436C386.133 365.708 386.524 367.014 386.658 368.353C386.792 369.67 386.859 371.109 386.859 372.672V394.868H379.795V387.034L380.967 388.306C379.337 390.917 377.429 392.837 375.242 394.064C373.077 395.269 370.365 395.872 367.107 395.872ZM368.714 389.444C370.544 389.444 372.106 389.121 373.401 388.473C374.695 387.826 375.722 387.034 376.481 386.096C377.262 385.159 377.786 384.277 378.054 383.452C378.478 382.425 378.712 381.253 378.757 379.936C378.824 378.597 378.858 377.515 378.858 376.689L381.335 377.426C378.902 377.805 376.815 378.14 375.075 378.43C373.334 378.72 371.838 378.999 370.588 379.267C369.339 379.512 368.234 379.791 367.274 380.104C366.337 380.439 365.544 380.829 364.897 381.276C364.25 381.722 363.748 382.235 363.391 382.816C363.056 383.396 362.889 384.077 362.889 384.858C362.889 385.751 363.112 386.543 363.558 387.235C364.004 387.904 364.652 388.44 365.5 388.842C366.37 389.243 367.442 389.444 368.714 389.444ZM416.766 394.868C414.378 395.314 412.035 395.504 409.736 395.437C407.459 395.392 405.417 394.979 403.609 394.198C401.801 393.395 400.429 392.134 399.491 390.415C398.666 388.853 398.23 387.257 398.186 385.628C398.141 383.998 398.119 382.157 398.119 380.104V348.668H406.154V379.635C406.154 381.086 406.165 382.358 406.187 383.452C406.232 384.545 406.466 385.438 406.89 386.13C407.694 387.469 408.977 388.217 410.74 388.373C412.503 388.529 414.512 388.44 416.766 388.105V394.868ZM391.557 365.039V358.711H416.766V365.039H391.557ZM425.21 353.221V345.822H433.279V353.221H425.21ZM425.21 394.868V358.711H433.279V394.868H425.21ZM468.315 394.868V377.459C468.315 376.321 468.237 375.06 468.081 373.676C467.924 372.292 467.556 370.964 466.976 369.692C466.418 368.398 465.57 367.338 464.431 366.512C463.316 365.686 461.798 365.273 459.878 365.273C458.852 365.273 457.836 365.441 456.832 365.775C455.828 366.11 454.913 366.69 454.087 367.516C453.283 368.32 452.636 369.436 452.145 370.864C451.654 372.27 451.409 374.078 451.409 376.287L446.621 374.245C446.621 371.165 447.213 368.375 448.396 365.876C449.601 363.376 451.364 361.39 453.685 359.917C456.006 358.421 458.863 357.674 462.255 357.674C464.934 357.674 467.143 358.12 468.884 359.013C470.625 359.905 472.009 361.044 473.035 362.428C474.062 363.811 474.821 365.284 475.312 366.847C475.803 368.409 476.115 369.893 476.249 371.299C476.405 372.683 476.484 373.81 476.484 374.68V394.868H468.315ZM443.24 394.868V358.711H450.438V369.927H451.409V394.868H443.24ZM500.419 411.941C498.41 411.941 496.479 411.629 494.627 411.004C492.797 410.379 491.145 409.475 489.672 408.292C488.199 407.132 486.994 405.726 486.057 404.074L493.489 400.392C494.181 401.708 495.152 402.679 496.401 403.304C497.674 403.951 499.024 404.275 500.452 404.275C502.126 404.275 503.621 403.974 504.938 403.371C506.255 402.791 507.271 401.92 507.985 400.76C508.721 399.622 509.067 398.193 509.023 396.475V386.197H510.027V358.711H517.091V396.609C517.091 397.524 517.046 398.394 516.957 399.22C516.89 400.068 516.767 400.894 516.589 401.697C516.053 404.041 515.026 405.96 513.509 407.455C511.991 408.973 510.105 410.1 507.851 410.837C505.619 411.573 503.142 411.941 500.419 411.941ZM499.716 395.872C496.39 395.872 493.489 395.035 491.011 393.361C488.534 391.687 486.615 389.411 485.253 386.532C483.892 383.653 483.211 380.405 483.211 376.79C483.211 373.129 483.892 369.871 485.253 367.014C486.637 364.135 488.59 361.87 491.112 360.218C493.634 358.544 496.602 357.707 500.017 357.707C503.454 357.707 506.333 358.544 508.654 360.218C510.998 361.87 512.772 364.135 513.977 367.014C515.183 369.893 515.785 373.152 515.785 376.79C515.785 380.383 515.183 383.63 513.977 386.532C512.772 389.411 510.975 391.687 508.587 393.361C506.199 395.035 503.242 395.872 499.716 395.872ZM500.954 388.641C503.119 388.641 504.86 388.15 506.177 387.168C507.516 386.163 508.487 384.768 509.09 382.983C509.714 381.197 510.027 379.133 510.027 376.79C510.027 374.424 509.714 372.359 509.09 370.596C508.487 368.811 507.538 367.427 506.244 366.445C504.949 365.441 503.276 364.938 501.222 364.938C499.057 364.938 497.272 365.474 495.866 366.545C494.46 367.594 493.422 369.023 492.752 370.83C492.083 372.616 491.748 374.602 491.748 376.79C491.748 378.999 492.072 381.008 492.719 382.816C493.388 384.601 494.404 386.018 495.765 387.067C497.127 388.116 498.856 388.641 500.954 388.641ZM553.843 395.872C549.38 395.872 545.753 394.868 542.963 392.859C540.173 390.85 538.477 388.027 537.874 384.389L546.11 383.117C546.534 384.902 547.471 386.308 548.922 387.335C550.373 388.362 552.203 388.875 554.412 388.875C556.354 388.875 557.85 388.496 558.898 387.737C559.97 386.956 560.505 385.896 560.505 384.556C560.505 383.731 560.305 383.072 559.903 382.581C559.523 382.068 558.675 381.577 557.359 381.108C556.042 380.64 554.022 380.048 551.299 379.334C548.264 378.53 545.853 377.671 544.068 376.756C542.282 375.819 540.999 374.714 540.218 373.442C539.437 372.17 539.046 370.63 539.046 368.822C539.046 366.568 539.637 364.604 540.82 362.93C542.003 361.256 543.655 359.972 545.775 359.08C547.895 358.165 550.395 357.707 553.274 357.707C556.086 357.707 558.575 358.142 560.74 359.013C562.927 359.883 564.69 361.122 566.029 362.729C567.368 364.336 568.194 366.222 568.507 368.387L560.271 369.86C560.07 368.32 559.367 367.103 558.162 366.211C556.979 365.318 555.394 364.816 553.408 364.704C551.511 364.592 549.982 364.883 548.822 365.574C547.661 366.244 547.081 367.193 547.081 368.42C547.081 369.112 547.315 369.703 547.784 370.194C548.252 370.685 549.19 371.176 550.596 371.667C552.024 372.158 554.145 372.761 556.957 373.475C559.836 374.212 562.135 375.06 563.853 376.02C565.594 376.957 566.844 378.084 567.603 379.401C568.384 380.718 568.774 382.313 568.774 384.188C568.774 387.826 567.447 390.683 564.791 392.759C562.157 394.834 558.508 395.872 553.843 395.872ZM597.299 394.868C594.911 395.314 592.567 395.504 590.268 395.437C587.992 395.392 585.95 394.979 584.142 394.198C582.334 393.395 580.962 392.134 580.024 390.415C579.198 388.853 578.763 387.257 578.718 385.628C578.674 383.998 578.652 382.157 578.652 380.104V348.668H586.686V379.635C586.686 381.086 586.697 382.358 586.72 383.452C586.764 384.545 586.999 385.438 587.423 386.13C588.226 387.469 589.51 388.217 591.273 388.373C593.036 388.529 595.045 388.44 597.299 388.105V394.868ZM572.09 365.039V358.711H597.299V365.039H572.09ZM605.074 394.868V358.711H612.204V367.516L611.334 366.378C611.78 365.173 612.372 364.079 613.108 363.097C613.867 362.093 614.771 361.267 615.82 360.62C616.713 360.017 617.695 359.548 618.766 359.214C619.86 358.857 620.976 358.644 622.114 358.578C623.252 358.488 624.357 358.533 625.428 358.711V366.244C624.357 365.932 623.118 365.831 621.712 365.943C620.328 366.054 619.078 366.445 617.963 367.114C616.847 367.717 615.932 368.487 615.217 369.424C614.525 370.362 614.012 371.433 613.677 372.638C613.343 373.821 613.175 375.105 613.175 376.488V394.868H605.074ZM641.077 395.872C638.466 395.872 636.256 395.381 634.448 394.399C632.641 393.395 631.268 392.067 630.331 390.415C629.415 388.764 628.958 386.945 628.958 384.958C628.958 383.217 629.248 381.655 629.828 380.271C630.409 378.865 631.301 377.66 632.507 376.656C633.712 375.629 635.274 374.792 637.194 374.145C638.644 373.676 640.34 373.252 642.282 372.873C644.246 372.493 646.367 372.147 648.643 371.835C650.942 371.5 653.341 371.143 655.841 370.764L652.962 372.404C652.984 369.904 652.426 368.063 651.288 366.88C650.15 365.697 648.23 365.106 645.53 365.106C643.9 365.106 642.327 365.485 640.809 366.244C639.292 367.003 638.231 368.308 637.629 370.161L630.264 367.851C631.156 364.793 632.853 362.338 635.352 360.486C637.874 358.633 641.267 357.707 645.53 357.707C648.743 357.707 651.567 358.232 653.999 359.281C656.455 360.33 658.274 362.048 659.456 364.436C660.104 365.708 660.494 367.014 660.628 368.353C660.762 369.67 660.829 371.109 660.829 372.672V394.868H653.765V387.034L654.937 388.306C653.308 390.917 651.399 392.837 649.212 394.064C647.047 395.269 644.336 395.872 641.077 395.872ZM642.684 389.444C644.514 389.444 646.076 389.121 647.371 388.473C648.665 387.826 649.692 387.034 650.451 386.096C651.232 385.159 651.756 384.277 652.024 383.452C652.448 382.425 652.683 381.253 652.727 379.936C652.794 378.597 652.828 377.515 652.828 376.689L655.305 377.426C652.872 377.805 650.786 378.14 649.045 378.43C647.304 378.72 645.809 378.999 644.559 379.267C643.309 379.512 642.204 379.791 641.244 380.104C640.307 380.439 639.515 380.829 638.867 381.276C638.22 381.722 637.718 382.235 637.361 382.816C637.026 383.396 636.859 384.077 636.859 384.858C636.859 385.751 637.082 386.543 637.528 387.235C637.975 387.904 638.622 388.44 639.47 388.842C640.34 389.243 641.412 389.444 642.684 389.444ZM694.553 394.868V377.459C694.553 376.321 694.475 375.06 694.319 373.676C694.162 372.292 693.794 370.964 693.214 369.692C692.656 368.398 691.808 367.338 690.669 366.512C689.553 365.686 688.036 365.273 686.116 365.273C685.09 365.273 684.074 365.441 683.07 365.775C682.066 366.11 681.15 366.69 680.325 367.516C679.521 368.32 678.874 369.436 678.383 370.864C677.892 372.27 677.646 374.078 677.646 376.287L672.859 374.245C672.859 371.165 673.451 368.375 674.633 365.876C675.839 363.376 677.602 361.39 679.923 359.917C682.244 358.421 685.101 357.674 688.493 357.674C691.172 357.674 693.381 358.12 695.122 359.013C696.863 359.905 698.247 361.044 699.273 362.428C700.3 363.811 701.059 365.284 701.55 366.847C702.041 368.409 702.353 369.893 702.487 371.299C702.643 372.683 702.721 373.81 702.721 374.68V394.868H694.553ZM669.478 394.868V358.711H676.676V369.927H677.646V394.868H669.478ZM726.657 411.941C724.648 411.941 722.717 411.629 720.865 411.004C719.035 410.379 717.383 409.475 715.91 408.292C714.437 407.132 713.232 405.726 712.295 404.074L719.727 400.392C720.419 401.708 721.389 402.679 722.639 403.304C723.911 403.951 725.262 404.275 726.69 404.275C728.364 404.275 729.859 403.974 731.176 403.371C732.493 402.791 733.509 401.92 734.223 400.76C734.959 399.622 735.305 398.193 735.261 396.475V386.197H736.265V358.711H743.329V396.609C743.329 397.524 743.284 398.394 743.195 399.22C743.128 400.068 743.005 400.894 742.827 401.697C742.291 404.041 741.264 405.96 739.747 407.455C738.229 408.973 736.343 410.1 734.089 410.837C731.857 411.573 729.38 411.941 726.657 411.941ZM725.954 395.872C722.628 395.872 719.727 395.035 717.249 393.361C714.772 391.687 712.853 389.411 711.491 386.532C710.13 383.653 709.449 380.405 709.449 376.79C709.449 373.129 710.13 369.871 711.491 367.014C712.875 364.135 714.828 361.87 717.35 360.218C719.872 358.544 722.84 357.707 726.255 357.707C729.692 357.707 732.571 358.544 734.892 360.218C737.236 361.87 739.01 364.135 740.215 367.014C741.42 369.893 742.023 373.152 742.023 376.79C742.023 380.383 741.42 383.63 740.215 386.532C739.01 389.411 737.213 391.687 734.825 393.361C732.437 395.035 729.48 395.872 725.954 395.872ZM727.192 388.641C729.357 388.641 731.098 388.15 732.415 387.168C733.754 386.163 734.725 384.768 735.327 382.983C735.952 381.197 736.265 379.133 736.265 376.79C736.265 374.424 735.952 372.359 735.327 370.596C734.725 368.811 733.776 367.427 732.482 366.445C731.187 365.441 729.513 364.938 727.46 364.938C725.295 364.938 723.51 365.474 722.104 366.545C720.698 367.594 719.66 369.023 718.99 370.83C718.321 372.616 717.986 374.602 717.986 376.79C717.986 378.999 718.309 381.008 718.957 382.816C719.626 384.601 720.642 386.018 722.003 387.067C723.365 388.116 725.094 388.641 727.192 388.641ZM769.154 395.872C765.494 395.872 762.28 395.08 759.513 393.495C756.745 391.91 754.58 389.712 753.018 386.9C751.478 384.088 750.708 380.852 750.708 377.191C750.708 373.241 751.467 369.815 752.984 366.914C754.502 363.99 756.611 361.724 759.312 360.118C762.012 358.511 765.137 357.707 768.686 357.707C772.435 357.707 775.616 358.589 778.227 360.352C780.86 362.093 782.813 364.559 784.086 367.751C785.358 370.942 785.838 374.703 785.525 379.033H777.524V376.087C777.502 372.158 776.81 369.29 775.448 367.483C774.087 365.675 771.944 364.771 769.02 364.771C765.717 364.771 763.262 365.798 761.655 367.851C760.048 369.882 759.245 372.861 759.245 376.79C759.245 380.45 760.048 383.284 761.655 385.293C763.262 387.302 765.606 388.306 768.686 388.306C770.672 388.306 772.379 387.871 773.808 387C775.258 386.108 776.374 384.824 777.156 383.15L785.123 385.561C783.74 388.819 781.597 391.352 778.696 393.16C775.816 394.968 772.636 395.872 769.154 395.872ZM756.701 379.033V372.94H781.575V379.033H756.701ZM199.878 461.868C197.49 462.314 195.147 462.504 192.848 462.437C190.572 462.392 188.529 461.979 186.722 461.198C184.914 460.395 183.541 459.134 182.604 457.415C181.778 455.853 181.343 454.257 181.298 452.628C181.254 450.998 181.231 449.157 181.231 447.104V415.668H189.266V446.635C189.266 448.086 189.277 449.358 189.299 450.452C189.344 451.545 189.578 452.438 190.002 453.13C190.806 454.469 192.089 455.217 193.852 455.373C195.616 455.529 197.624 455.44 199.878 455.105V461.868ZM174.67 432.039V425.711H199.878V432.039H174.67ZM232.661 461.868V444.459C232.661 443.321 232.583 442.06 232.427 440.676C232.271 439.292 231.902 437.964 231.322 436.692C230.764 435.398 229.916 434.338 228.778 433.512C227.662 432.686 226.144 432.273 224.225 432.273C223.198 432.273 222.183 432.441 221.178 432.775C220.174 433.11 219.259 433.69 218.433 434.516C217.63 435.32 216.982 436.436 216.491 437.864C216 439.27 215.755 441.078 215.755 443.287L210.968 441.245C210.968 438.165 211.559 435.375 212.742 432.876C213.947 430.376 215.71 428.39 218.031 426.917C220.353 425.421 223.209 424.674 226.602 424.674C229.28 424.674 231.49 425.12 233.23 426.013C234.971 426.905 236.355 428.044 237.382 429.428C238.408 430.811 239.167 432.284 239.658 433.847C240.149 435.409 240.462 436.893 240.596 438.299C240.752 439.683 240.83 440.81 240.83 441.68V461.868H232.661ZM207.586 461.868V413.659H214.784V439.036H215.755V461.868H207.586ZM250.236 420.221V412.822H258.304V420.221H250.236ZM250.236 461.868V425.711H258.304V461.868H250.236ZM293.34 461.868V444.459C293.34 443.321 293.262 442.06 293.106 440.676C292.95 439.292 292.581 437.964 292.001 436.692C291.443 435.398 290.595 434.338 289.457 433.512C288.341 432.686 286.823 432.273 284.904 432.273C283.877 432.273 282.862 432.441 281.857 432.775C280.853 433.11 279.938 433.69 279.112 434.516C278.309 435.32 277.661 436.436 277.17 437.864C276.679 439.27 276.434 441.078 276.434 443.287L271.646 441.245C271.646 438.165 272.238 435.375 273.421 432.876C274.626 430.376 276.389 428.39 278.71 426.917C281.031 425.421 283.888 424.674 287.281 424.674C289.959 424.674 292.168 425.12 293.909 426.013C295.65 426.905 297.034 428.044 298.061 429.428C299.087 430.811 299.846 432.284 300.337 433.847C300.828 435.409 301.14 436.893 301.274 438.299C301.431 439.683 301.509 440.81 301.509 441.68V461.868H293.34ZM268.265 461.868V425.711H275.463V436.927H276.434V461.868H268.265ZM325.444 478.941C323.435 478.941 321.505 478.629 319.652 478.004C317.822 477.379 316.171 476.475 314.698 475.292C313.224 474.132 312.019 472.726 311.082 471.074L318.514 467.392C319.206 468.708 320.177 469.679 321.427 470.304C322.699 470.951 324.049 471.275 325.477 471.275C327.151 471.275 328.647 470.974 329.963 470.371C331.28 469.791 332.296 468.92 333.01 467.76C333.746 466.622 334.092 465.193 334.048 463.475V453.197H335.052V425.711H342.116V463.609C342.116 464.524 342.071 465.394 341.982 466.22C341.915 467.068 341.792 467.894 341.614 468.697C341.078 471.041 340.052 472.96 338.534 474.455C337.016 475.973 335.13 477.1 332.876 477.837C330.644 478.573 328.167 478.941 325.444 478.941ZM324.741 462.872C321.415 462.872 318.514 462.035 316.037 460.361C313.559 458.687 311.64 456.411 310.278 453.532C308.917 450.653 308.236 447.405 308.236 443.79C308.236 440.129 308.917 436.871 310.278 434.014C311.662 431.135 313.615 428.87 316.137 427.218C318.659 425.544 321.627 424.707 325.042 424.707C328.479 424.707 331.358 425.544 333.68 427.218C336.023 428.87 337.797 431.135 339.003 434.014C340.208 436.893 340.81 440.152 340.81 443.79C340.81 447.383 340.208 450.63 339.003 453.532C337.797 456.411 336.001 458.687 333.613 460.361C331.224 462.035 328.267 462.872 324.741 462.872ZM325.98 455.641C328.144 455.641 329.885 455.15 331.202 454.168C332.541 453.163 333.512 451.768 334.115 449.983C334.74 448.197 335.052 446.133 335.052 443.79C335.052 441.424 334.74 439.359 334.115 437.596C333.512 435.811 332.564 434.427 331.269 433.445C329.975 432.441 328.301 431.938 326.247 431.938C324.083 431.938 322.297 432.474 320.891 433.545C319.485 434.594 318.447 436.023 317.777 437.83C317.108 439.616 316.773 441.602 316.773 443.79C316.773 445.999 317.097 448.008 317.744 449.816C318.414 451.601 319.429 453.018 320.79 454.067C322.152 455.116 323.882 455.641 325.98 455.641ZM365.464 462.872C361.001 462.872 357.374 461.868 354.584 459.859C351.794 457.85 350.098 455.027 349.495 451.389L357.731 450.117C358.155 451.902 359.092 453.308 360.543 454.335C361.994 455.362 363.824 455.875 366.033 455.875C367.975 455.875 369.47 455.496 370.519 454.737C371.591 453.956 372.126 452.896 372.126 451.556C372.126 450.731 371.926 450.072 371.524 449.581C371.144 449.068 370.296 448.577 368.979 448.108C367.663 447.64 365.643 447.048 362.92 446.334C359.885 445.53 357.474 444.671 355.689 443.756C353.903 442.819 352.62 441.714 351.839 440.442C351.058 439.17 350.667 437.63 350.667 435.822C350.667 433.568 351.258 431.604 352.441 429.93C353.624 428.256 355.276 426.972 357.396 426.08C359.516 425.165 362.016 424.707 364.895 424.707C367.707 424.707 370.196 425.142 372.361 426.013C374.548 426.883 376.311 428.122 377.65 429.729C378.989 431.336 379.815 433.222 380.128 435.387L371.892 436.86C371.691 435.32 370.988 434.103 369.783 433.211C368.6 432.318 367.015 431.816 365.029 431.704C363.132 431.592 361.603 431.883 360.443 432.574C359.282 433.244 358.702 434.193 358.702 435.42C358.702 436.112 358.936 436.703 359.405 437.194C359.873 437.685 360.811 438.176 362.217 438.667C363.645 439.158 365.766 439.761 368.578 440.475C371.457 441.212 373.756 442.06 375.474 443.02C377.215 443.957 378.465 445.084 379.224 446.401C380.005 447.718 380.395 449.313 380.395 451.188C380.395 454.826 379.067 457.683 376.412 459.759C373.778 461.834 370.129 462.872 365.464 462.872ZM383.041 466.555H449.997V399.599H383.041V466.555Z" fill="white"/>
</g>
<defs>
<pattern id="pattern0_1740_70865" patternContentUnits="objectBoundingBox" width="1" height="1">
<use xlink:href="#image0_1740_70865" transform="matrix(0.0005 0 0 0.000952381 0 -0.261905)"/>
</pattern>
<radialGradient id="paint0_radial_1740_70865" cx="0" cy="0" r="1" gradientTransform="matrix(-881.442 522.834 -1174.7 -545.854 1026.34 40.5644)" gradientUnits="userSpaceOnUse">
<stop offset="0.315" stop-opacity="0.27"/>
<stop offset="0.625319" stop-opacity="0.57"/>
<stop offset="1" stop-opacity="0.83"/>
</radialGradient>
<clipPath id="clip0_1740_70865">
<rect width="1200" height="630" fill="white"/>
</clipPath>
<image id="image0_1740_70865" width="2000" height="1600" preserveAspectRatio="none" xlink:href="/art/hero.webp"/>
</defs>
</svg>
